<svg xmlns="http://www.w3.org/2000/svg" viewBox="0 0 666.31 184.59"><g id="Layer_2" data-name="Layer 2"><g id="Layer_1-2" data-name="Layer 1"><path d="M153,122.64c-.65.21-.77.26-.88.28-6.12,1.5-7.3,2.81-7.69,9.06a3.6,3.6,0,0,0,1.41,2.48c4,3.14,4,3.1,1.6,8.36-5.89-2.69-8.29,1.18-10.46,5.78-1.75,3.68,2.78,4.29,3,7.49l-3.27,4.13-6.92-2.86a12.23,12.23,0,0,1-2.14,2.7c-3.24,2.31-4.62,4.63-2.5,8.8,1.67,3.31-3,2.78-4,5.69-3.67-6.24-7.65-4.49-12-2.06-3.67,2-.44,5.07-1.88,7.5-4.58,2.73-4.62,2.64-7.8-1.71a4.71,4.71,0,0,0-3.37-1.5c-4.92,0-9.14,1.07-8.48,7.32-5.85,1-5.74.93-7.56-4.14a4.34,4.34,0,0,0-2.91-2.31c-6.39-1-6.4-.88-10.82,4.77l-5.8-1.76c2.92-6.54-1.95-7.94-6.24-9.86-3.8-1.7-4.13,2.91-7,3.34-5-2.16-4.84-2.13-3.38-7.27a4.83,4.83,0,0,0-1-3.5A13.62,13.62,0,0,0,39.24,160a4.36,4.36,0,0,0-3.33-.58c-5,1.88-4.92,2-8.27-3,6.86-4.55,1.86-8.66-.79-13.11l-6.26.7c-3.33-4.53-3.22-4.78.92-8.12a5,5,0,0,0,1.27-3.36c0-1.26-.63-2.54-.79-3.84-.31-2.45-1.27-3.87-4.08-3.8-1.84,0-3.73-.17-3.86-3-.12-2.53.31-4.17,3.06-4.56s4.31-1.83,3.17-5.1H0c.34-6.86.67-13.53,1-20.85,1.94,0,4.74,0,7.55,0,5,0,10.07,0,15.1-.17a2.81,2.81,0,0,0,2.14-1.22,2.83,2.83,0,0,0-.8-2.29c-3.63-3.92-3.66-3.89-.74-8.34,7.43,1,7.43,1,11.14-4.51-6.73-6.47-13.39-13-20.2-19.29a4.6,4.6,0,0,0-3.57-.84c-2.75.57-4.27-.3-5.4-2.83A14,14,0,0,0,3,47.67C1.31,46,.74,44.5,1.85,42.21c.79-1.64.65-3.74,1.47-5.35a12.66,12.66,0,0,1,3.59-4.21c1.46-1.07,3.48-1.34,5-2.32,2.14-1.34,3.74-1.37,5.92.21,1.51,1.08,4.16,1.89,5.76,1.31,15.3-5.5,30.5-11.33,45.72-17.07a9.32,9.32,0,0,0,1.2-.68C70.16,4.13,79.84-2.34,89,.8a59.61,59.61,0,0,0,5.73,2.07c5.76,1.33,7.82,5.81,9.41,10.69a3.29,3.29,0,0,1-.18,2.31A31.2,31.2,0,0,1,87,31.13c-4.26,1.66-8.35-.64-12-3.14a4.93,4.93,0,0,0-3.65-.89C56.64,32,42.05,37,28.07,41.76l-1.91,7.68c4.64,4.86,9.85,10.3,15,15.76,1.44,1.51,2.73,2,4.55.36a57.54,57.54,0,0,1,5.68-4L50,54.89l5.14-2.47a3.68,3.68,0,0,1,.57.3c4.86,5.14,4.95,5.22,11.58,2.34A3.41,3.41,0,0,0,69,52.45c-.41-4.75,2.31-5.61,6.53-5.31,1.27,3.23,2.22,6.3,7.49,6.3s5.69-3.48,7.23-6.71l5.68.78c1.18,3-.25,6.94,5.32,8.4,5.24,1.36,6.75-1.41,9-4,5.44,2,5.32,2,4.74,6.84-.12,1.08.74,2.48,1.52,3.42a13.48,13.48,0,0,0,3,2c.89.59,1.76,1.22,2.89,2l5.8-3.72,4.46,3.83-3.19,6.12,5.87,7.18c7-1.55,7-1.55,9.58,3.23-1.48,1.73-3.46,3.31-4.33,5.36-.44,1,1.13,2.94,2,4.9C155.83,82,170,80.91,185.28,89.45c-.07-5.74,3.32-8.54,6.1-11.85,15.78-18.76,37.47-25.43,60.38-29.11,9.6-1.53,19,1.34,26.9,6.93,5.82,4.11,10.93,9.28,16.11,14.23S302.2,81,303.45,87.82c.48,2.57,1.62,3.52,4.31,3.45,7.17-.18,14.35-.06,21.73-.06.46,7.12.91,14,1.4,21.57H308.34c0,6.76.09,12.84,0,18.91a68.73,68.73,0,0,1-.88,9.28,24.56,24.56,0,0,1-7.59,14.22c-12,11.65-26.52,17-42.79,17.75-10.48.48-21.12.58-31.48-.74-6.67-.86-13.18-4.18-19.37-7.19s-9.91-8.52-12.19-14.95c-4.3-12.18-8.93-24.26-10.09-37.3-.09-1-1.27-2.21-2.25-2.85-8.24-5.35-16.94-6.1-26-2.3a28.3,28.3,0,0,0-4.85,2.28,38.9,38.9,0,0,0-4.19,3.74,30.86,30.86,0,0,0,4.64,2.61C155.16,117.65,152.11,120.49,153,122.64Zm-61.52-18.2c-.55-10.82-1-20.73-1.62-30.63-.07-1.07-.89-2.86-1.65-3-6.51-1.43-13-3.53-19.81-1.89-13.78,3.32-27.82,20.17-29.16,35-1.06,11.65,0,23.15,2.12,34.6,1.79,9.75,6.86,14.63,17.21,16.51V82.47c5.39,0,10.52.12,15.65-.06A4.63,4.63,0,0,1,78.81,85C82.81,91.33,87,97.55,91.51,104.44Zm13.07-27.78c.66,26.47,1.31,52.8,2,79.6,8.28-2.62,14.45-6.84,17.58-14.64,5.26-13.08,6.19-26.69,4.47-40.51C127.15,89.3,117.23,79.2,104.58,76.66ZM199,98.81c.47,14.92,3.1,29.18,9.26,42.61,1.5,3.28,4.31,6,7.09,9.68C222.49,133,229.12,116.2,236,98.81Zm93.42,25.07-49.32,1.23c0,.68-.12,1.07,0,1.35,4.49,9.1,8.95,18.21,13.6,27.23a3.6,3.6,0,0,0,3.1,1.27c9.71-2,18.65-6,27.12-10.94a7.58,7.58,0,0,0,3.25-4.46C291.2,134.6,291.66,129.52,292.42,123.88ZM71.25,98.24l-1,.32q-.41,10.29-.8,20.6c-.47,12.18-1,24.35-1.33,36.54,0,1,.78,2.71,1.52,2.91,10.13,2.67,20.25,2.15,31-.44C90.71,137.9,81,118.07,71.25,98.24Zm182.86-1.13L235.15,68c-10.74,5.58-21.53,10.52-30.64,18.26-2.72,2.32-5.14,5-4.71,9.36Zm-15.82-30,25.14,40.37c4.56-10.93,8.88-21.16,13-31.45a3.62,3.62,0,0,0-.92-3.21C264.48,63.24,252.1,61.84,238.29,67.06ZM292,120.86c-1.14-22.14-4-37.49-12.53-43.86-6.54,15-13.06,29.85-19.82,45.28Zm-37.75,34.89-20.88-43.93c-5.2,13.67-10.08,26.53-15.14,39.83A115.29,115.29,0,0,0,254.22,155.75ZM85.93,22.19v.11c.83.08,1.67.22,2.5.22,5,0,7.27-2.85,6.09-7.68-1.77-7.23-6.9-9-14.85-5.67-4.09,1.7-3.31,4.67-3,7.7a5.52,5.52,0,0,0,5,5.27A24.65,24.65,0,0,0,85.93,22.19Z"/><path d="M390,38.15c-.7,19.72-1.36,38.42-2,57.33l-10.08.76V26c5.81,0,11.76-.08,17.7.08.82,0,1.72,1.09,2.38,1.85C402.38,33,406.78,38.19,411.82,43c-.58-5-1.16-10-1.79-15.6l14.88-1c.85,22.21,1.69,44,2.51,65.55-3.29,1.29-4-.83-5-2.38-6.15-10-12.17-20-18.4-30C399.64,52.65,395,45.84,390,38.15Z"/><path d="M377.28,110.28c6.19,0,12-.11,17.83.1,1,0,2.17,1.29,3,2.22,4.2,4.83,8.32,9.73,12.46,14.61l.94-.4c-.53-4.87-1.06-9.74-1.65-15.11h14.9c.84,21.39,1.69,43,2.53,64.47-3,1.45-4-.47-5-2.17-5.62-9.17-11.12-18.41-16.83-27.53-4.88-7.77-10-15.41-15-23.11l-1.13.13c0,4.79.12,9.58,0,14.36-.41,12.91-1,25.8-1.36,38.71-.07,2.61-.93,3.57-3.49,3.67-8.39.35-6.82.84-6.86-6.17-.14-20-.18-40-.26-59.95C377.27,112.83,377.28,111.55,377.28,110.28Z"/><path d="M516.05,114.22a85.36,85.36,0,0,1,8.71,1.28,3.56,3.56,0,0,1,2.17,2.54c.62,13,1,26.05,1.58,39.07.27,5.72-3.21,9.73-6.81,12.8-7.47,6.37-16.61,7.38-26.07,5.23a5.29,5.29,0,0,1-2.43-1.38c-7.61-7.66-11.71-16.37-10.19-27.66,1.39-10.39,1.57-20.94,2.3-31.42.1-1.41.24-2.82.4-4.73L496,111.49c-.42,7.23-1.18,14.23-1.14,21.24,0,7.75.79,15.49,1.27,23.24a12.34,12.34,0,0,0,.57,2.44c1.76,6.1,3.62,7.73,8.39,7.42,6.33-.41,9.57-3,10.43-8.78,2-13.56,1.81-27.18.8-40.81C516.23,115.68,516.15,115.12,516.05,114.22Z"/><path d="M483.92,27.19,494,28.8c-.37,5.7-.69,11.28-1.11,16.85-.74,9.71-.76,19.37,1.73,28.88,1.62,6.18,3,7.52,7.4,7.45,6.8-.1,10-2,10.72-8,1-8.51,1.24-17.13,1.58-25.72.22-5.45,0-10.91,0-16.67,2.34.29,5.29.51,8.17,1.1a3,3,0,0,1,1.64,2.28c.65,13.25,1.33,26.5,1.67,39.76.13,4.9-3.24,8.63-6.61,11.44a25.67,25.67,0,0,1-26,4.65c-3.91-1.43-6.92-6.61-9.31-10.69-4-6.8-3.16-14.41-2.35-22C482.67,48,483.15,37.88,483.92,27.19Z"/><path d="M665.36,112.38v22.48h-8a25.62,25.62,0,0,1-.74-5c.17-3.58-1.73-4.61-4.84-4.49a17.45,17.45,0,0,0-2.51.1c-6.5,1.15-8.74,5.9-4.49,10.83a94,94,0,0,0,14.56,13.78c9.25,6.94,9.16,12.5.69,22.44a6.54,6.54,0,0,1-4.1,1.84,74.75,74.75,0,0,1-9.7.07c-5.37-.23-10.73-.64-16.62-1,.6-6.49,1.2-12.74,1.74-19,.29-3.39.24-3.4,4-4.15a52.34,52.34,0,0,0,.78,5.19c1,4.14,3.87,6,8,5.21a12.73,12.73,0,0,0,4.38-1.51c4.66-2.92,6.29-4.87,1.9-9.38-3.59-3.68-7.11-7.44-10.63-11.19-3.94-4.18-5.93-15.64-3.18-20.62,2.45-4.44,6.92-6.4,11.73-6.53C653.82,111.29,659.3,112,665.36,112.38Z"/><path d="M579.89,61.6c-.94-8.66,1.66-16.57,5.18-24.24A5.5,5.5,0,0,1,588,34.53c8.08-2.23,16.59-1.49,23.35,2.52,7.3,4.34,13.43,11.18,11.28,21.29-1.48,7-2.74,14.11-5.26,20.74-1.54,4-5.2,7.31-8.12,10.75a4,4,0,0,1-3.22.94c-7.84-1.29-15.59-3-21.8-8.4a8.43,8.43,0,0,1-2.61-4.72C580.82,72.33,580.44,67,579.89,61.6Zm7.53-3.18c.81,8.73,3.18,16.33,10,21.89,4.74,3.86,8.52,3.17,10.7-2.44A163.23,163.23,0,0,0,614,58.39c1.2-4.76-1-8.85-5.24-11.32-2.37-1.38-4.69-2.85-7-4.36-4.33-2.84-8.32-2.23-10.44,2.48C589.48,49.35,588.69,54,587.42,58.42Z"/><path d="M567.84,175.71l-26.57-1.19c-1.28-3.63-.18-5.38,3.31-6.5,7.27-2.34,7.08-2.53,7-10.16-.14-9.57,0-19.16-.06-28.74v-4h-4.17c-.38,2.43-.77,4.86-1.17,7.38H540.4V111.93l36.14-1.43c.54,9,1.07,17.75,1.61,26.63-3.6,0-5.53-1.12-5.23-4.62.34-3.87-1.52-5.42-5.38-5.54-3.08-.1-6.13-.93-9.93-1.56,0,3.25,0,6.17,0,9.09-.18,9.2-.3,18.41-.69,27.61-.1,2.49.56,3.84,3,4.39a31.47,31.47,0,0,1,3.09,1C568.61,169.33,568.61,169.33,567.84,175.71Z"/><path d="M562.25,87.56c-4.3-11.9-8.47-23.42-12.65-34.94l-1,0c-1.94,12.24-3.87,24.48-5.85,37h-4.89c1-18.78,2-37.54,3-56.39,4.83-.31,9-.74,13.17-.81,6.9-.13,12.39,3.34,17.38,7.56.82.69,1.07,2.91.65,4.09-2.82,7.85-8,10.29-16.79,7.6,5.49,10.45,10.71,20.36,16,30.49Z"/><path d="M473.4,174.54l-6.61,1c-1.56-8.45-2.91-16.57-4.63-24.6-.43-2,.89-5.37-3.35-5.52-7.91-.28-9.46.31-10.83,5q-3.27,11.19-6.54,22.36c-1.38,4.7-1.38,4.69-6.68,4.51.17-.91.25-1.81.5-2.66,5.65-19.76,11.35-39.51,16.94-59.29.59-2.1,1.46-2.92,3.66-2.78,3.1.18,6.21,0,9.49,0C471,132.89,470.77,153.67,473.4,174.54Z"/><path d="M621.24,173.76l-6.4,1.14c-1.47-7.7-3-15.17-4.29-22.65-1.51-8.43-1.44-8.33-9.91-7.28-2.72.33-3.85,1.54-4.54,4.06-2.13,7.84-4.49,15.61-6.78,23.41-1.35,4.6-1.37,4.59-6.85,4,2.11-7,4.31-13.92,6.3-20.9,3.87-13.56,7.69-27.13,11.35-40.74.63-2.34,1.63-3,3.92-3,9.62,0,10-.12,11.36,9.46,2,14.78,3.47,29.65,5.14,44.49C620.82,168.32,621,170.81,621.24,173.76Z"/><path d="M437.06,36.48h34.56c0,4.08.05,8.69-.06,13.3,0,.51-.9,1.26-1.5,1.4-.41.1-1.3-.53-1.51-1a12.65,12.65,0,0,1-.47-2.86h-20.5c-.16,2.2-.31,4.16-.5,6.56,2.57,0,4.81,0,7.05,0,1.9,0,3.17.65,3.27,2.87.11,2.7.44,5.39.73,8.72-3.74,0-6.94,0-10.13,0-2.27,0-3.49.77-3.75,3.24-.4,3.8-1.16,7.55-1.86,11.9l23.51,1.09c.38-2.53.65-5.1,1.21-7.6.18-.78,1.14-1.4,1.73-2.09.41.84,1.21,1.7,1.17,2.52-.19,4.17-.6,8.32-1,12.84h-32Z"/></g></g></svg>